<svg xmlns="http://www.w3.org/2000/svg" width="700" height="400" viewBox="0 0 700 400">
  <defs>
    <style>
      .cls-1 {
        fill: #fff;
        fill-rule: evenodd;
      }
    </style>
  </defs>
  <path id="AVM_1" data-name="AVM 1" class="cls-1" d="M69.09,399.992H65.433q-25.6,0-45.923-20.1Q0,360.222,0,332.433q0-28.221,19.1-48.318C31.3,271.287,39.174,263.884,58.78,261.453L104.613,129.98a13.385,13.385,0,0,0-9.945-4.55q-17.3,0-17.3,20.927,0,3.647,2.162,10.463l-9.512,4.549a76.646,76.646,0,0,1-5.189-26.385q0-39.579,32.861-39.579,0.861,0,5.188.228l12.539,0.682,16.863-47.4q-12.97-19.555-32.429-19.562-22.923,0-41.076,27.751l-8.215-5.914q8.209-12.731,14.917-21.837a79.424,79.424,0,0,1,12.755-14.1A57.569,57.569,0,0,1,119-1c10.062,0,19.268,3.767,28.184,10.418l3.881-9.53,9.489,4.084L156.5,16.156q5.189,7.741,12.971,35.029l56.642,191.9c1.562,5.782,5.665,13.806,6.888,16.17,4.79-6.035,9.229-9.287,12.622-13.4,8.013-8.612,14.41-15.122,14.41-15.122V109.952q-31.6-15.907-31.6-48.9,0-47.721,43.8-61.861l3.881,12.961q-23.844,11.2-23.841,28.279,0,30.641,46.573,30.636V233.674l23.693,86.092c5.908-3.534,18.254-75.487,36.742-81.378V76.347L341.534,58.083l-12.2,12.372-8.871-10.6,45.464-43.6L399.2,50.424l18.851-17.675,0.113,0.128L454.372-1q14.412,15.327,19.406,30.047Q477.1,40.838,477.1,64.4L547.518-1q24.391,19.442,24.4,64.218L643.991-1l30.494,30.047,17.188-15.907,8.316,10.6L666.168,54.969v134.35c0,20.823,4.245,162.94,12.753,168.436l13.306-11.783,7.762,11.783-48.79,41.83q-23.845-14.719-23.841-62.45V48.488l-8.317-8.248L571.914,81.481V350.1l11.643,10.016,13.306-11.783,9.426,10.015-45.464,41.241L519.8,360.7,533.1,350.1V80.891q0-25.918-12.2-38.884L477.659,82.07V349.507l11.088,10.605,11.089-11.194,8.871,10.605-42.692,40.062-32.157-30.636-17.742,16.5-8.871-10.015,31.6-30.047V80.891q0-24.744-11.644-38.295L418.1,51.237l-20.01,19.218v164.4a32.214,32.214,0,0,1,4.99-.59H406.4a44.239,44.239,0,0,1,6.1.59v14.139q-8.317-.579-13.307-0.589h-6.653c-23.261,0-43.748,126.76-61.944,136.778-30.991,14.251.179,0.54-31.2,14.011L260.912,266.637l-13.186,17.176-23.877,25.958c-12.076-6.669-19.937-15.258-25.409-35.58l-17.728-62.78H86.885L70.022,261.453q28.963,0,54.48,15.922l9.5-9.513,35.645,38.971-35.645,37.826C119.014,329.8,78.165,290.1,60.556,290.1q-19.917,0-33.731,11.973-14.631,13.678-14.631,34.207,0,23.511,17.069,39.338,16.659,14.532,39.827,14.538,2.438,0,4.674-.214M138.339,63.468L99.424,176.837h70.911Z"/>
</svg>
